PathFileType	4	(X/Y/Z)	C:/Users/beibeiliu/ov580/test_trc\sequence.20_training_dense_right.trc
DataRate	CameraRate	NumFrames	NumMarkers	Units	OrigDataRate	OrigDataStartFrame	OrigNumFrames
120	120	16	19	mm	120	211	336
Frame#	Time	ThumbCMC			ThumbMCP			ThumbIP			ThumbTip			IndexMCP			IndexPIP			IndexTip			MiddleMCP			MiddlePIP			MiddleTip			RingMCP			RingPIP			RingTip			PinkyMCP			PinkyPIP			PinkyTip			BackHand1			BackHand2			BackHand3	
		X0	Y0	Z0	X1	Y1	Z1	X2	Y2	Z2	X3	Y3	Z3	X4	Y4	Z4	X5	Y5	Z5	X6	Y6	Z6	X7	Y7	Z7	X8	Y8	Z8	X9	Y9	Z9	X10	Y10	Z10	X11	Y11	Z11	X12	Y12	Z12	X13	Y13	Z13	X14	Y14	Z14	X15	Y15	Z15	X16	Y16	Z16	X17	Y17	Z17	X18	Y18	Z18	
210	1.75	296.384	18.6363	48.8044	270.484	40.3576	47.6816	248.797	49.1233	44.8179	230.8	53.4486	45.8998	253.201	25.4847	-3.81344	231.671	34.5416	-6.46508	209.656	52.397	4.18754	234.823	5.24008	-1.27181	213.422	19.8355	-3.65884	193.796	32.6598	10.0354	233.935	-9.69329	11.359	209.428	6.6185	11.3661	195.365	22.4234	20.7908	231.299	-24.5479	29.1043	210.398	-12.5214	29.4304	196.371	2.25333	33.785	275.462	-23.5742	28.6491	296.416	-32.1978	45.6595	297.322	-7.58205	28.6532	
211	1.75833	295.277	21.2716	46.8857	275.843	45.0399	48.6155	253.238	56.855	42.747	231.68	62.9583	41.4908	251.972	26.884	-6.36665	232.367	39.7973	-9.97688	212.249	57.4723	0.316795	238.069	8.09842	-3.51579	214.502	21.4951	-6.3126	194.437	39.5582	4.59962	228.184	-3.07783	7.85743	205.024	9.31965	9.08254	192.309	27.0091	19.1476	222.763	-19.9857	26.7962	208.721	-9.54835	25.5811	190.864	8.58594	30.9253	268.914	-24.1242	25.9743	286.177	-34.2894	48.006	291.244	-11.186	26.753	
212	1.76667	290.991	20.4106	44.3043	272.303	41.0624	45.9637	254.057	59.343	40.0776	232.918	67.6822	36.9698	251.718	27.0819	-9.13469	233.955	40.9265	-13.0303	213.851	60.9773	-5.69145	231.208	10.1936	-7.35488	213.951	25.9558	-11.1539	193.081	44.1352	-0.699608	219.834	-2.97348	6.26488	202.819	16.6429	4.75694	191.008	34.8283	14.3459	214.813	-15.4596	24.5373	198.955	-2.20695	22.892	186.68	15.2982	27.2849	262.835	-25.4385	26.2992	278.503	-31.5718	44.5631	286.905	-10.9434	26.9648	
213	1.775	287.158	17.3669	44.7608	269.039	45.4713	41.2287	250.99	60.0322	36.5129	230.924	70.0544	31.6897	251.372	26.1497	-8.98304	232.057	42.7192	-16.6244	212.59	64.0683	-10.1639	230.798	10.5387	-7.54621	208.414	28.1733	-14.4392	187.491	49.458	-1.64884	219.119	2.5548	2.30696	200.678	18.1422	2.0601	189.897	42.5607	10.2374	211.96	-12.3305	22.068	193.949	1.3532	21.6035	185.44	19.5704	20.8065	257.153	-26.1995	27.6593	272.168	-34.7147	46.9398	284.048	-12.3953	28.8989	
214	1.78333	285.461	18.0739	44.1493	268.468	42.1219	41.7611	250.947	62.5407	33.7252	235.286	73.8206	31.5884	247.421	27.8434	-12.3958	228.128	42.8306	-19.3013	212.288	64.8236	-13.8193	227.55	14.5453	-10.9757	205.163	27.7782	-16.2249	188.919	53.6278	-8.33604	215.41	4.69238	-0.302708	195.903	22.8994	-2.08834	186.635	42.2789	5.97196	205.158	-9.88293	21.1007	189.942	7.38127	17.3253	180.743	25.3004	18.5033	247.661	-24.1691	23.2745	263.429	-35.4114	42.4424	275.843	-13.041	27.9973	
215	1.79167	280.278	18.6592	40.6591	264.525	45.8428	36.6763	251.204	62.0676	31.6629	235.597	77.3324	27.1873	241.953	28.2514	-15.6188	225.391	46.864	-24.0238	210.654	66.5416	-16.9522	224.031	18.6301	-15.4732	203.796	32.6737	-21.1574	185.746	57.0496	-10.2924	209.484	5.36797	-0.653604	193.826	28.3605	-6.23862	187.052	46.3322	0.934268	201.266	-4.65932	16.6333	185.698	8.60057	16.5251	176.757	26.7376	15.2255	245.464	-20.9105	22.8707	259.517	-31.5649	41.1271	273.328	-10.1612	22.1498	
216	1.8	278.378	21.2915	38.6554	262.521	46.437	35.2314	247.092	64.2465	26.771	234.279	80.8481	21.2178	242.752	30.2373	-18.0814	225.107	48.0313	-26.886	208.963	68.8533	-20.5929	223.974	18.7248	-15.8385	199.588	39.0574	-23.664	189.543	63.315	-16.8506	208.019	10.6645	-6.35892	192.053	28.5903	-9.664	185.635	54.4781	-1.8197	197.729	-0.0104754	15.0944	183.998	17.7068	10.5473	172.904	37.2174	14.5708	240.073	-17.0648	18.3533	250.864	-29.7791	38.2267	266.656	-10.2907	25.0697	
217	1.80833	274.258	20.8554	38.4075	263.448	49.4879	33.0972	248.552	69.0652	22.3374	234.956	80.1918	18.8965	243.594	31.4644	-21.7366	226.96	51.5906	-31.6276	211.276	73.145	-24.777	217.442	20.7647	-20.0818	199.154	39.597	-28.1585	186.564	66.9771	-19.525	204.836	12.8356	-8.60308	187.826	32.4566	-12.8973	184.458	56.6388	-8.72079	193.702	3.11152	13.4503	180.099	19.3217	8.81826	173.275	39.3833	5.63597	233.842	-14.7022	21.954	244.991	-26.9178	37.6442	261.69	-8.10708	22.4287	
218	1.81667	270.765	20.994	37.3374	259.747	50.8253	29.2562	248.158	70.6428	18.0148	236.449	84.9573	12.3736	242.052	31.5059	-22.9444	227.291	52.4973	-34.37	210.8	74.5006	-29.2726	219.202	21.4542	-22.8562	198.141	41.0295	-33.1079	186.599	68.506	-27.0374	202.275	15.3309	-10.9658	186.964	31.4889	-17.6522	182.542	57.3066	-14.2486	193.423	6.4948	9.02773	176.713	19.8212	5.83882	172.824	46.2016	0.707766	231.673	-14.6514	21.1417	243.278	-24.4533	39.4062	255.921	-8.62119	21.9349	
219	1.825	266.256	22.4278	38.5832	260.375	53.4698	27.9593	248.432	71.1575	13.7761	236.14	85.5419	7.17838	238.497	29.2495	-22.4566	224.918	50.8575	-37.3897	214.723	72.2695	-36.6695	216.367	21.0557	-25.5496	200.7	39.2285	-37.307	190.048	66.7614	-36.2026	198.793	15.6468	-12.0585	188.583	35.3487	-22.7652	183.723	60.7295	-22.3197	188.635	10.85	5.16234	177.194	23.7179	-0.450583	170.238	46.0504	-3.77431	225.267	-10.034	21.5537	237.211	-19.309	41.4198	254.85	-5.28947	26.0579	
220	1.83333	266.527	24.8038	36.5428	256.37	53.3728	23.2523	248.797	72.6234	11.7212	234.669	86.7828	-0.00780807	240.922	30.4009	-28.0933	228.941	51.257	-42.8018	219.979	74.7084	-43.4352	213.797	20.7915	-27.3238	202.522	42.7274	-43.6458	190.123	66.8195	-41.5388	201.489	16.0202	-11.9845	186.711	36.2154	-26.6731	184.966	61.2882	-29.0247	187.429	14.928	3.96304	170.996	30.5171	-4.23665	169.725	48.3457	-12.3998	219.192	-7.22498	21.6917	232.204	-15.3768	45.1676	248.296	-2.74724	21.4426	
221	1.84167	262.429	26.9554	34.8818	257.952	55.8796	23.8437	248.657	71.132	10.479	235.746	87.4143	-3.83863	237.96	28.641	-29.0497	229.34	45.9318	-43.6604	224.091	72.4723	-48.3451	214.773	20.7572	-26.5926	205.949	42.8842	-47.6774	194.78	67.8763	-48.1984	199.328	18.1215	-13.143	187.073	38.6617	-31.6052	187.849	60.9518	-35.9702	182.341	16.2276	5.37146	174.384	30.4803	-7.98403	166.062	49.8082	-14.0134	218.406	-6.03114	22.5841	228.879	-12.097	45.1562	246.008	-4.08054	24.6466	
222	1.85	259.266	29.1483	33.964	255.154	54.1726	23.0732	248.956	73.9786	3.98877	239.332	88.1039	-5.23978	239.149	29.2216	-29.8755	229.186	47.1198	-46.8207	225.583	69.5083	-51.0396	217.318	20.7501	-28.011	206.99	40.9986	-50.4496	198.911	65.7061	-53.9883	199.22	20.1388	-19.651	189.314	37.6128	-34.2792	187.049	63.81	-40.1103	180.422	19.7305	-1.036	172.763	34.5583	-13.6661	170.161	49.5686	-22.8073	213.694	-3.56259	21.5736	223.403	-8.75666	42.0676	244.966	0.368274	22.5668	
223	1.85833	255.442	29.4888	35.362	254.123	57.0692	17.7547	248.343	70.792	6.34143	238.002	89.5168	-12.3852	241.456	27.8071	-28.7771	236.313	44.5601	-48.8535	225.139	70.3144	-52.9121	217.646	21.3954	-32.2984	205.842	40.0305	-51.9646	199.659	63.6158	-56.2966	197.394	19.9567	-21.9593	192.337	38.6684	-38.4325	188.538	63.3968	-43.7339	185.317	19.4003	0.709715	174.499	35.3037	-17.662	168.848	54.9931	-25.2314	215.724	-1.45689	20.658	222.028	-8.44474	42.2769	243.676	-0.723392	26.4494	
224	1.86667	257.586	31.7686	36.6848	251.767	56.9349	17.9883	247.495	72.1213	3.75226	240.652	88.8652	-10.9609	241.298	27.2999	-28.8248	236.017	43.4078	-48.1342	228.959	69.7407	-55.4106	220.124	19.8749	-31.2168	206.451	37.8798	-53.0759	202.313	63.4017	-59.9872	199.771	19.1385	-17.2316	192.24	37.3904	-40.3436	193.151	62.1941	-46.2797	184.051	21.1646	-3.87153	177.028	34.3842	-20.2452	171.772	50.8656	-29.5038	211.783	1.85082	18.8742	218.277	-3.05286	44.0485	240.427	0.865715	27.9372	
225	1.875	256.392	34.3892	36.5678	253.616	59.8928	21.4288	248.727	74.1035	2.10704	241.498	89.0277	-12.4203	241.315	25.4288	-27.4073	241.075	43.1119	-50.002	230.028	65.0895	-56.3268	220.335	20.6994	-31.3565	214.315	36.5271	-54.3999	205.85	60.243	-62.4292	200.141	20.1808	-22.5674	198.638	35.8602	-40.6203	191.1	58.3794	-48.7653	186.463	22.5735	-7.78436	173.905	34.8589	-19.1323	172.409	54.1304	-34.5169	214.726	6.00523	18.7402	214.85	-1.16645	45.0429	241.518	2.88855	30.4375	
